<?xml version="1.0" encoding="UTF-8"?>
<svg width="1024" height="1024" viewBox="0 0 1024 1024" fill="none" xmlns="http://www.w3.org/2000/svg">
  <!-- Background circle with gradient -->
  <defs>
    <linearGradient id="bg" x1="0%" y1="0%" x2="100%" y2="100%">
      <stop offset="0%" style="stop-color:#6366F1"/>
      <stop offset="100%" style="stop-color:#8B5CF6"/>
    </linearGradient>
    <linearGradient id="hat" x1="0%" y1="0%" x2="100%" y2="100%">
      <stop offset="0%" style="stop-color:#FFFFFF"/>
      <stop offset="100%" style="stop-color:#F8FAFC"/>
    </linearGradient>
    <linearGradient id="band" x1="0%" y1="0%" x2="100%" y2="100%">
      <stop offset="0%" style="stop-color:#10B981"/>
      <stop offset="100%" style="stop-color:#0EA5E9"/>
    </linearGradient>
  </defs>
  
  <!-- Main background -->
  <circle cx="512" cy="512" r="480" fill="url(#bg)"/>
  
  <!-- Inner glow -->
  <circle cx="512" cy="512" r="440" fill="none" stroke="rgba(255,255,255,0.15)" stroke-width="3"/>
  
  <!-- Chef hat main body -->
  <ellipse cx="512" cy="420" rx="180" ry="140" fill="url(#hat)" stroke="rgba(148,163,184,0.3)" stroke-width="4"/>
  
  <!-- Chef hat top puff -->
  <circle cx="450" cy="320" r="60" fill="url(#hat)" stroke="rgba(148,163,184,0.3)" stroke-width="3"/>
  <circle cx="512" cy="300" r="70" fill="url(#hat)" stroke="rgba(148,163,184,0.3)" stroke-width="3"/>
  <circle cx="574" cy="320" r="60" fill="url(#hat)" stroke="rgba(148,163,184,0.3)" stroke-width="3"/>
  
  <!-- Chef hat band -->
  <rect x="332" y="520" width="360" height="50" rx="25" fill="url(#band)"/>
  
  <!-- AI sparkle - main -->
  <g transform="translate(420, 380)">
    <path d="M0,-25 L8,-8 L25,0 L8,8 L0,25 L-8,8 L-25,0 L-8,-8 Z" fill="#F59E0B" opacity="0.9"/>
  </g>
  
  <!-- AI sparkle - small -->
  <circle cx="580" cy="360" r="8" fill="#EF4444" opacity="0.8"/>
  <circle cx="440" cy="480" r="6" fill="#10B981" opacity="0.7"/>
  <circle cx="590" cy="450" r="5" fill="#F59E0B" opacity="0.6"/>
  
  <!-- Cooking utensils silhouette -->
  <g transform="translate(512, 680)" opacity="0.3">
    <!-- Spoon -->
    <ellipse cx="-40" cy="-60" rx="15" ry="25" fill="white"/>
    <rect x="-45" y="-35" width="10" height="80" rx="5" fill="white"/>
    
    <!-- Fork -->
    <rect x="35" y="-60" width="10" height="105" rx="5" fill="white"/>
    <rect x="25" y="-75" width="6" height="30" rx="3" fill="white"/>
    <rect x="35" y="-75" width="6" height="30" rx="3" fill="white"/>
    <rect x="45" y="-75" width="6" height="30" rx="3" fill="white"/>
  </g>
  
  <!-- Bottom highlight -->
  <ellipse cx="512" cy="850" rx="300" ry="50" fill="rgba(255,255,255,0.1)"/>
  
  <!-- Subtle tech dots -->
  <circle cx="300" cy="200" r="4" fill="rgba(255,255,255,0.2)"/>
  <circle cx="724" cy="180" r="3" fill="rgba(255,255,255,0.15)"/>
  <circle cx="280" cy="800" r="3" fill="rgba(255,255,255,0.1)"/>
  <circle cx="744" cy="820" r="4" fill="rgba(255,255,255,0.2)"/>
</svg>